<svg version="1.2" baseProfile="tiny-ps" xmlns="http://www.w3.org/2000/svg" viewBox="0 0 1800 1000" width="1440" height="800">
	<title>5184408-ai</title>
	<defs>
		<clipPath clipPathUnits="userSpaceOnUse" id="cp1">
			<path d="M-40.4 648.44C-40.4 667.58 -55.55 683.11 -74.23 683.11C-92.91 683.11 -108.06 667.58 -108.06 648.44C-108.06 629.29 -92.91 613.77 -74.23 613.77C-55.55 613.77 -40.4 629.29 -40.4 648.44Z" />
		</clipPath>
		<clipPath clipPathUnits="userSpaceOnUse" id="cp2">
			<path d="M-231.02 648.44C-231.02 667.58 -246.17 683.11 -264.85 683.11C-283.53 683.11 -298.67 667.58 -298.67 648.44C-298.67 629.29 -283.53 613.77 -264.85 613.77C-246.17 613.77 -231.02 629.29 -231.02 648.44Z" />
		</clipPath>
		<clipPath clipPathUnits="userSpaceOnUse" id="cp3">
			<path d="M-138.42 648.44C-138.42 667.58 -153.56 683.11 -172.24 683.11C-190.93 683.11 -206.07 667.58 -206.07 648.44C-206.07 629.29 -190.93 613.77 -172.24 613.77C-153.56 613.77 -138.42 629.29 -138.42 648.44Z" />
		</clipPath>
	</defs>
	<style>
		tspan { white-space:pre }
		.shp0 { fill: #ffffff;stroke: #000000;stroke-width: 2 } 
		.shp1 { fill: #ffffff } 
		.shp2 { fill: #a0c6f4 } 
		.shp3 { fill: none;stroke: #2a1e17;stroke-linecap:round;stroke-linejoin:round;stroke-width: 2 } 
		.shp4 { fill: #2a1e17 } 
		.shp5 { fill: #eaecec } 
		.shp6 { fill: #f9865f } 
		.shp7 { fill: #000000 } 
		.shp8 { fill: #2a1e33 } 
		.shp9 { fill: #7595ec } 
		.shp10 { fill: #ff8a66 } 
		.shp11 { fill: #fff7c9 } 
		.shp12 { fill: none;stroke: #2a1e33;stroke-linecap:round;stroke-linejoin:round;stroke-width: 2 } 
		.shp13 { fill: #ff6d66 } 
		.shp14 { fill: #fad8b0 } 
		.shp15 { fill: #c6cbcb } 
		.shp16 { fill: #fff7dc } 
		.shp17 { fill: #ffe1c0 } 
		.shp18 { fill: #ffffff;stroke: #2a1e17;stroke-linecap:round;stroke-linejoin:round;stroke-width: 2 } 
		.shp19 { fill: #91ba83 } 
		.txt20 { font-size: 43px;line-height: 37px;fill: #2a1e33;font-weight: 700;font-family: "Poppins-Bold", "Poppins" } 
		.txt21 { font-size: 10px;fill: #2a1e33;font-weight: 700;font-family: "Poppins-Bold", "Poppins" } 
		.txt22 { font-size: 10px;fill: #ffffff;font-weight: 700;font-family: "Poppins-Bold", "Poppins" } 
		.txt23 { font-size: 10px;fill: #2a1e33;font-weight: 400;font-family: "Poppins-Regular", "Poppins" } 
		.shp24 { fill: none;stroke: #2a1e17;stroke-width: 2 } 
		.shp25 { fill: none;stroke: #2a1e17;stroke-linecap:round;stroke-linejoin:round;stroke-width: 1.341 } 
		.shp26 { fill: #96bd89 } 
		.shp27 { fill: none;stroke: #ff6d66;stroke-linecap:round;stroke-linejoin:round;stroke-width: 2 } 
		.shp28 { fill: none;stroke: #fad8b0;stroke-width: 2 } 
		.shp29 { fill: none;stroke: #a0c6f4;stroke-linecap:round;stroke-linejoin:round;stroke-width: 2 } 
		.shp30 { fill: #e3e6e6 } 
		.shp31 { fill: #f6f6f6 } 
		.shp32 { fill: #959595 } 
		.shp33 { fill: #a4a4a4 } 
		.shp34 { fill: #242424 } 
		.txt35 { font-size: 6px;fill: #2a1e33;font-weight: 400;font-family: "Poppins-Regular", "Poppins" } 
		.txt36 { font-size: 13px;fill: #2a1e33;font-weight: 700;font-family: "Poppins-Bold", "Poppins" } 
		.txt37 { font-size: 13px;fill: #2a1e33;font-weight: 300;font-family: "Poppins-Light", "Poppins" } 
		.shp38 { fill: none;stroke: #ffffff;stroke-linecap:round;stroke-linejoin:round;stroke-width: 2 } 
	</style>
	<g id="BACKGROUND">
		<path id="&lt;Path&gt;" class="shp0" d="M162 -336L-1638 -336L-1638 -1336L162 -1336L162 -336Z" />
	</g>
	<g id="OBJECTS">
		<g id="&lt;Clip Group&gt;">
			<g id="&lt;Group&gt;">
				<g id="&lt;Group&gt;">
					<g id="&lt;Group&gt;">
						<path id="&lt;Path&gt;" class="shp1" d="M1079.18 341.17C1010.27 274.97 929.54 257.89 908.2 254.4C922.57 214.66 944.78 155.58 950.31 146.83C952.09 146.59 955.73 146.2 961.1 146.2C976.77 146.2 1010.32 149.55 1058.86 171.93C1128.95 204.26 1147.72 240.63 1151.4 249.52L1079.18 341.17Z" />
						<path id="&lt;Compound Path&gt;" fill-rule="evenodd" class="shp2" d="M1060.61 167.96C1115.84 193.43 1147.71 220.88 1156.24 250.32L1079.59 347.59C1026.05 294.59 966.98 264.71 902.38 257.96C929.59 182.3 944.86 143.9 948.19 142.77C951.11 142.15 955.41 141.84 961.1 141.84C978.22 141.84 1012.06 145.57 1060.61 167.96ZM952.95 150.92C947.15 162.17 929.87 207.2 913.99 250.94C924.55 252.89 942.18 256.91 963.72 264.74C994.08 275.8 1037.99 296.79 1078.73 334.81L1146.42 248.91C1141.02 237.85 1120.53 205.16 1057.12 175.91C1009.3 153.86 976.43 150.56 961.1 150.56C957.56 150.56 954.83 150.74 952.95 150.92Z" />
					</g>
					<path id="&lt;Path&gt;" class="shp3" d="M916.6 266.77C980.13 273.35 1031.47 295.05 1070.61 331.88" />
					<path id="&lt;Path&gt;" class="shp2" d="M998.89 262.01L1034.44 191.16L1070.97 265.05L998.89 262.01Z" />
					<path id="&lt;Path&gt;" class="shp3" d="M1005.8 261L1041.35 190.15L1077.89 264.03L1005.8 261Z" />
				</g>
				<path id="&lt;Path&gt;" class="shp3" d="M972.43 137.54C1043.66 144.12 1101.41 174.37 1145.69 228.3" />
			</g>
			<path id="&lt;Path&gt;" class="shp4" d="M1027.02 451.49C1023.11 448.54 1019.87 446.08 1017.3 444.1C1018.93 441.88 1044.64 413.8 1059.53 391.18C1039.46 432.59 1028.62 452.69 1027.02 451.49Z" />
			<path id="&lt;Path&gt;" class="shp3" d="M662.71 246.86C665.57 251.75 666.85 249.79 675.12 249.14C683.39 248.49 695.16 254.68 699.3 265.12C703.43 275.55 702.16 277.18 699.93 278.49C697.71 279.79 681.8 281.75 681.16 285.01" />
			<path id="&lt;Path&gt;" class="shp5" d="" />
			<g id="&lt;Group&gt;">
				<path id="&lt;Path&gt;" class="shp6" d="M850.24 815.1L843.33 809.66L869.63 764.74L877.04 777.58L850.24 815.1Z" />
				<path id="&lt;Path&gt;" class="shp6" d="M702.44 666.19C693.35 651.05 690.76 639.77 694.66 632.36L738.13 637.12L702.44 666.19Z" />
				<path id="&lt;Path&gt;" class="shp7" d="M729.24 628.67L738.13 637.12C743.06 641.82 743.92 649.51 740.14 655.23L700.39 715.47L700.39 715.47C697.31 712.74 696 708.46 697.01 704.42L705.04 672.32L702.44 666.19L729.24 628.67Z" />
				<path id="&lt;Path&gt;" class="shp8" d="M666.8 270.15C658.91 260.45 658.12 252.91 664.43 247.52C691.25 240.24 703.08 264.49 706.23 274.2C709.39 283.9 693.61 284.71 681.16 285.01C679.47 284.81 674.68 279.85 666.8 270.15Z" />
				<path id="&lt;Path&gt;" class="shp9" d="M691.57 652.78C664.51 615.26 664.73 517.37 678.84 494.56C717.01 432.83 798.23 466.57 817.89 477.84C831 485.35 840.22 492.94 845.56 500.62L810.87 564.83C804.23 559.72 755.75 521.82 740.9 545.12C728.92 563.95 730.01 594.79 744.17 637.66L691.57 652.78Z" />
				<path id="&lt;Path&gt;" class="shp3" d="M744.17 637.66C730.01 594.79 728.92 563.95 740.9 545.12C755.75 521.82 804.23 559.72 810.87 564.83" />
				<path id="&lt;Path&gt;" class="shp9" d="M922.48 543.82C902.88 578.13 864.15 632.21 857.05 688C853.78 713.7 860.9 740.19 878.42 767.46L841.04 823.26C763.71 737.17 758.42 693.21 772.49 640.19C783.01 600.56 829.79 517.64 845.56 500.62L922.48 543.82Z" />
				<path id="&lt;Path&gt;" class="shp4" d="M932.27 528.88L913.68 557.84L851.5 507.82L932.27 528.88Z" />
				<path id="&lt;Path&gt;" class="shp10" d="M1208.65 455.23C1218.35 457.36 1225.73 461.15 1230.81 466.59C1235.89 472.03 1233.58 474.87 1231.74 476.53C1229.89 478.18 1222.73 476.29 1216.5 470.61C1212.34 466.83 1209.73 461.7 1208.65 455.23Z" />
				<path id="&lt;Path&gt;" class="shp6" d="M1017.3 444.1C1018.93 441.88 1044.64 413.8 1059.53 391.18C1089.52 425.63 1106.15 443.41 1109.4 444.52C1111.21 445.14 1122.24 444.99 1135.94 444.85C1159.09 444.6 1189.86 444.36 1196.67 447.85C1207.52 453.41 1214.02 456.19 1216.73 463.96C1219.44 471.74 1220.51 476.82 1214.02 477.3C1208.96 477.67 1204.81 474.52 1201.55 467.85C1197.42 470.41 1190.01 473.75 1179.33 477.85C1140.89 493.15 1108.83 497.1 1083.13 489.7C1076.12 487.68 1054.17 472.48 1017.3 444.1Z" />
				<path id="&lt;Path&gt;" class="shp6" d="M705.03 240.99C711.18 243.16 720.83 252.51 733.98 269.03C749.04 276.86 772.05 289.62 803.02 307.31C816.29 304.33 832.91 301.19 852.88 297.9C854.58 321.6 859.6 341.15 867.95 356.56C864.29 357.46 859.76 358.44 854.35 359.52C837.67 362.86 809.9 367.39 796.2 363.88C778.16 359.26 745.43 336.53 740.98 331.96C738.01 328.92 726.26 317.13 705.74 296.59L702.24 297.24C687.61 297.89 680.53 288.27 681.16 285.01C681.8 281.75 697.71 279.79 699.93 278.49C702.16 277.18 703.43 275.55 699.3 265.12C695.16 254.68 683.39 248.49 675.12 249.14C666.85 249.79 665.57 251.75 662.71 246.86C659.85 241.97 662.85 239.66 667.8 237.73C674.48 235.12 695.8 237.73 705.03 240.99Z" />
				<path id="&lt;Path&gt;" class="shp4" d="M845.54 329.15C844.12 315.73 845.69 306.5 850.26 301.45C851.95 325.15 857.85 343.52 867.95 356.56C864.29 357.46 859.76 358.44 854.35 359.52C850.26 356.14 847.32 346.01 845.54 329.15Z" />
				<path id="&lt;Path&gt;" class="shp11" d="M895.41 291.23C929.38 290.57 957.64 314.75 989.26 328.86C1010.34 338.27 1033.76 359.05 1059.53 391.18C1058.09 401.01 1044.04 419.78 1017.36 447.46L996.96 431.26C984.31 448.42 959.48 485.94 922.48 543.82C905.65 544.86 791.73 470.29 794.56 463.43C806.1 435.48 829.7 400.12 865.37 357.36L861.3 359.03C853.73 346.95 849.8 326.43 849.52 297.47C860.52 293.69 875.81 291.61 895.41 291.23Z" />
				<path id="&lt;Path&gt;" class="shp4" d="M1017.36 447.46L996.96 431.26L1000.21 422.18L1017.36 447.46Z" />
				<path id="&lt;Path&gt;" class="shp6" d="M1048.39 275.72C1044.82 287.11 1034.51 320.05 1023 324.11C1015.33 326.82 1007.5 326.48 999.51 323.07L987.26 329.5C985.89 333.71 976.22 337.33 963.72 337.82C954.48 338.19 948.84 326.01 951.58 317.2C952.42 314.5 954.4 306.51 957.53 293.21C964.15 268.27 970.49 253.22 976.58 248.07C985.7 240.34 994.28 232.69 1018.64 242.78C1043.5 253.08 1053.42 264.06 1048.39 275.72Z" />
				<path id="&lt;Path&gt;" class="shp8" d="M974.45 277.34C972.82 284.33 965.72 298.32 961.08 295.8C956.44 293.28 954.81 286.85 958.08 274.55C961.36 262.24 964.08 234.27 973.36 229.24C979.55 225.88 984.01 226.16 986.73 230.08C984.01 216.46 986.64 208.73 994.65 206.86C997.38 205.56 998.2 209.57 997.1 218.89C1000.2 210.31 1006.75 206.58 1016.75 207.7C1026.76 208.82 1033.49 216.56 1036.94 230.91C1037.67 227 1040.31 225.04 1044.86 225.04C1051.68 225.04 1062.05 235.39 1059.59 246.86C1071.23 243.12 1080.15 246.01 1086.34 255.53C1095.61 269.79 1094.52 285.45 1072.15 291.61C1048.75 298.04 1048.95 270.07 1045.4 266.43C1041.86 262.8 1038.04 258.6 1024.94 263.64C1016.21 266.99 1007.29 263.73 998.2 253.85C996.74 265.78 995.28 272.31 993.83 273.43C991.65 275.1 987.28 277.34 988.37 268.95C989.46 260.56 990.83 261.4 990.01 259.16C989.19 256.92 985.5 249.87 977.73 256.09C971.91 260.75 970.82 267.83 974.45 277.34Z" />
				<path id="&lt;Path&gt;" class="shp12" d="M978.17 280.47C972.96 275.99 969.36 268.1 973.94 260.2C978.52 252.31 986.01 251.24 988.3 254.23C990.59 257.21 991.48 262.25 989.32 268.22" />
				<path id="&lt;Path&gt;" class="shp7" d="M877.04 777.58L885.93 786.04C890.86 790.74 891.72 798.43 887.94 804.15L848.19 864.38L848.19 864.38C845.11 861.66 843.8 857.38 844.81 853.33L852.84 821.24L850.24 815.1L877.04 777.58Z" />
				<path id="&lt;Path&gt;" class="shp12" d="M986.73 230.08C984.7 223.31 980.65 219.04 974.57 217.26" />
				<path id="&lt;Path&gt;" class="shp3" d="M793.31 460.36L903.45 302.68" />
				<path id="&lt;Path&gt;" class="shp3" d="M991.25 336.49C983.47 341.97 973.5 344.22 961.32 343.23C943.07 341.76 944.88 319 948.84 313.71" />
				<path id="&lt;Path&gt;" class="shp3" d="M705.03 240.99C713.42 252.37 718.27 260.09 719.59 264.15" />
				<path id="&lt;Path&gt;" class="shp3" d="M1178.79 457.63C1184.88 459.6 1190.49 459.93 1195.61 458.61C1203.3 456.64 1207.63 464.52 1201.55 467.85C1190.39 473.98 1182 474.67 1176.39 469.94" />
				<path id="&lt;Path&gt;" class="shp3" d="M1211.53 456.22C1216.91 462.65 1219.53 467.78 1219.38 471.6" />
				<path id="&lt;Path&gt;" class="shp3" d="M1092.78 455.17C1097.64 448.52 1103.18 444.97 1109.4 444.52" />
				<path id="&lt;Path&gt;" class="shp3" d="M785.11 323.41C787.95 314.35 793.92 308.98 803.02 307.31" />
				<path id="&lt;Path&gt;" class="shp3" d="M770.34 714.99C758.2 674.89 770.02 623.79 805.81 561.72L822.09 529.8" />
				<path id="&lt;Path&gt;" class="shp3" d="M869.65 636.62L922.48 543.82C968.63 475.21 994.07 436.07 998.79 426.39L1023.22 380.06" />
				<path id="&lt;Path&gt;" class="shp3" d="M800.69 470.25C863.31 517.04 903.91 541.57 922.48 543.82" />
				<path id="&lt;Path&gt;" class="shp3" d="M849.52 297.47C849.47 326.84 853.3 347.54 861.02 359.58" />
				<path id="&lt;Path&gt;" class="shp3" d="M1056.51 384.2C1054.54 396.3 1040.49 415.07 1014.34 440.48" />
			</g>
			<path id="&lt;Path&gt;" class="shp4" d="" />
			<path id="&lt;Path&gt;" class="shp6" d="" />
			<path id="&lt;Path&gt;" class="shp4" d="M769.51 604.6C769.51 607.76 767.01 610.32 763.93 610.32C760.85 610.32 758.36 607.76 758.36 604.6C758.36 601.44 760.85 598.88 763.93 598.88C767.01 598.88 769.51 601.44 769.51 604.6Z" />
			<g id="&lt;Group&gt;">
				<path id="&lt;Path&gt;" class="shp3" d="M1287.24 727.44L1284.16 705.57L1302.35 717.97L1292.83 720.1L1287.24 727.44Z" />
				<path id="&lt;Path&gt;" class="shp3" d="M1297.26 567.98C1303.08 572.22 1360.78 644.79 1266.92 691.53C1171.79 738.89 1044.14 728.17 999.26 677.41C968.4 642.51 1051.34 665.03 1028.38 754.15C1015.58 803.82 921.07 791.02 800.79 648.24C592.29 400.74 649.27 322.98 683.75 354.16" />
				<path id="&lt;Path&gt;" class="shp4" d="M1274 691.08C1274 694.24 1271.5 696.8 1268.42 696.8C1265.34 696.8 1262.84 694.24 1262.84 691.08C1262.84 687.92 1265.34 685.36 1268.42 685.36C1271.5 685.36 1274 687.92 1274 691.08Z" />
				<path id="&lt;Path&gt;" class="shp3" d="M1187.26 737.74L1352.59 642.23" />
				<path id="&lt;Path&gt;" class="shp4" d="M692.77 358.79C692.77 361.94 690.27 364.5 687.19 364.5C684.11 364.5 681.61 361.94 681.61 358.79C681.61 355.63 684.11 353.07 687.19 353.07C690.27 353.07 692.77 355.63 692.77 358.79Z" />
			</g>
			<path id="&lt;Path&gt;" class="shp13" d="M841.37 240.76C841.37 247.53 836.02 253.03 829.41 253.03C822.8 253.03 817.44 247.53 817.44 240.76C817.44 233.99 822.8 228.5 829.41 228.5C836.02 228.5 841.37 233.99 841.37 240.76Z" />
			<g id="&lt;Group&gt;">
				<path id="&lt;Path&gt;" class="shp2" d="M617.53 152.61C617.53 155.59 615.18 158 612.27 158C609.37 158 607.01 155.59 607.01 152.61C607.01 149.63 609.37 147.22 612.27 147.22C615.18 147.22 617.53 149.63 617.53 152.61Z" />
			</g>
			<path id="&lt;Path&gt;" class="shp14" d="M1322.38 811.45C1322.38 814.43 1320.03 816.84 1317.12 816.84C1314.22 816.84 1311.86 814.43 1311.86 811.45C1311.86 808.47 1314.22 806.06 1317.12 806.06C1320.03 806.06 1322.38 808.47 1322.38 811.45Z" />
			<g id="&lt;Group&gt;">
				<path id="&lt;Path&gt;" class="shp8" d="M1223.13 567.96L1166.58 540.76C1162.02 538.57 1162.1 531.89 1166.71 529.81L1271.92 482.36C1273.41 481.69 1275.11 481.68 1276.6 482.34L1348.86 514.13L1223.13 567.96Z" />
				<path id="&lt;Path&gt;" class="shp15" d="M1226.99 466.8L1335.25 416.24C1340.21 413.92 1345.87 417.53 1346.05 423.11L1348.86 514.13L1223.13 567.96C1220.9 524.35 1219.73 494.56 1219.63 478.57C1219.6 473.5 1222.49 468.9 1226.99 466.8Z" />
				<path id="&lt;Path&gt;" class="shp3" d="M1335.25 416.24C1341.89 414.2 1345.49 416.49 1346.05 423.11L1348.86 514.13L1223.13 567.96" />
				<path id="&lt;Path&gt;" class="shp3" d="M1283.99 502.54L1292.48 481.98" />
				<path id="&lt;Path&gt;" class="shp3" d="M1292.48 502.54L1300.97 481.98" />
			</g>
			<path id="&lt;Path&gt;" class="shp13" d="M640.21 721.47C640.21 724.45 637.85 726.86 634.95 726.86C632.04 726.86 629.69 724.45 629.69 721.47C629.69 718.5 632.04 716.08 634.95 716.08C637.85 716.08 640.21 718.5 640.21 721.47Z" />
			<path id="&lt;Path&gt;" class="shp13" d="M1085.78 748.18C1085.78 752.32 1082.51 755.67 1078.47 755.67C1074.44 755.67 1071.17 752.32 1071.17 748.18C1071.17 744.05 1074.44 740.69 1078.47 740.69C1082.51 740.69 1085.78 744.05 1085.78 748.18Z" />
			<g id="&lt;Group&gt;">
				<path id="&lt;Path&gt;" class="shp16" d="M689.46 801.41C698.02 805.62 722.93 816.23 755.89 816.01C757.69 816 759.09 817.63 758.86 819.47L754.27 856.8C754.11 858.13 753.13 859.19 751.84 859.44C742.53 861.23 705.01 866.51 676.94 842.11C676.06 841.35 675.71 840.12 676.01 838.99L685.28 803.4C685.77 801.54 687.77 800.58 689.46 801.41Z" />
				<path id="&lt;Path&gt;" class="shp3" d="M751.76 823.36C730.95 836.07 718.62 841.31 714.76 839.08C710.91 836.85 703.57 827.95 692.76 812.38" />
				<path id="&lt;Path&gt;" class="shp3" d="M730.05 835.83L747.08 853.77" />
				<path id="&lt;Path&gt;" class="shp3" d="M706.38 832.37L686.46 837.92" />
			</g>
			<path id="&lt;Path&gt;" class="shp17" d="M1211.08 379.27L1192.05 379.27L1192.05 359.77L1211.08 359.77L1211.08 379.27Z" />
			<g id="&lt;Group&gt;">
				<path id="&lt;Path&gt;" class="shp2" d="M1194.63 622.88L1200.28 632.92L1205.94 642.96L1194.63 642.96L1183.31 642.96L1188.97 632.92L1194.63 622.88Z" />
			</g>
			<g id="&lt;Group&gt;">
				<path id="&lt;Path&gt;" class="shp3" d="M737.22 178.01L738.7 132.42C738.54 128.16 740.23 126.81 742.79 126.23C754.87 123.49 791.6 115.1 831.55 127.2C836.71 128.76 836.55 131.56 836.47 134.08L835.04 177.55C834.93 180.74 831.68 183.05 828.05 182.5C816.39 180.75 800.52 180.21 784.41 180.35C767.77 180.5 752.93 181.77 742.55 183.81C738.59 184.59 737.11 181.57 737.22 178.01Z" />
				<path id="&lt;Path&gt;" class="shp3" d="M750.67 171.34L773.92 143.44L799.66 169.48C793.74 167.5 777.41 168.13 750.67 171.34Z" />
				<path id="&lt;Path&gt;" class="shp3" d="M788.17 156.36L806.97 140.94L822.81 152.53L823.4 170.64L799.66 169.48" />
				<path id="&lt;Path&gt;" class="shp3" d="M760.79 140.66C761.03 142.86 759.19 144.76 756.68 144.9C754.17 145.04 751.93 143.37 751.69 141.17C751.44 138.98 753.28 137.08 755.79 136.94C758.3 136.8 760.54 138.46 760.79 140.66Z" />
			</g>
			<g id="&lt;Group&gt;">
				<path id="&lt;Path&gt;" class="shp3" d="M1186.84 770.29L1202.44 799.81C1204.08 802.45 1203.5 803.96 1202.08 805.3C1195.4 811.65 1175.11 830.97 1145.35 838.5C1141.5 839.48 1140.59 837.64 1139.73 836L1124.87 807.85C1123.78 805.78 1125.01 803.08 1127.51 802.04C1135.56 798.71 1145.83 793.01 1156.01 786.78C1166.53 780.35 1175.49 773.89 1181.35 768.63C1183.58 766.63 1185.62 767.98 1186.84 770.29Z" />
				<path id="&lt;Path&gt;" class="shp3" d="M1180.72 779.64L1176.07 806.22L1150.27 799.49C1154.75 798.49 1164.89 791.88 1180.72 779.64Z" />
				<path id="&lt;Path&gt;" class="shp3" d="M1162.33 803.45L1155.98 820.41L1141.71 819.08L1134.77 807.8L1150.27 799.49" />
				<path id="&lt;Path&gt;" class="shp3" d="M1185.42 802.99C1184.46 801.69 1184.94 799.78 1186.49 798.74C1188.03 797.69 1190.06 797.89 1191.01 799.2C1191.96 800.5 1191.48 802.4 1189.94 803.45C1188.39 804.5 1186.37 804.29 1185.42 802.99Z" />
			</g>
			<g id="&lt;Group&gt;">
				<g id="&lt;Group&gt;">
					<path id="&lt;Path&gt;" class="shp18" d="M1110.27 261.91L1120.74 247.09C1121.79 245.61 1123.83 245.32 1125.23 246.47L1187.7 297.71C1189.02 298.78 1189.27 300.73 1188.27 302.12L1178.7 315.41C1177.66 316.85 1175.67 317.14 1174.28 316.05L1110.91 266.34C1109.56 265.28 1109.28 263.32 1110.27 261.91Z" />
					<path id="&lt;Path&gt;" class="shp13" d="M1124.66 250.94L1140.04 264.08L1130.97 275.17L1115.6 264.12L1124.66 250.94Z" />
					<path id="&lt;Path&gt;" class="shp14" d="M1144.9 268.71L1160.39 281.59L1152.14 291.99L1136.75 279.48L1144.9 268.71Z" />
					<path id="&lt;Path&gt;" class="shp2" d="M1165.45 285.73L1180.01 298.22L1172.69 307.86L1157.32 296.8L1165.45 285.73Z" />
				</g>
				<g id="&lt;Group&gt;">
					<path id="&lt;Path&gt;" class="shp18" d="M1241.42 191.4L1268.46 187.34C1271.17 186.94 1273.66 188.94 1273.92 191.73L1285.78 316.73C1286.02 319.35 1284.21 321.71 1281.65 322.07L1257.2 325.5C1254.55 325.87 1252.11 323.94 1251.79 321.22L1237.35 196.84C1237.05 194.19 1238.85 191.78 1241.42 191.4Z" />
					<path id="&lt;Path&gt;" class="shp13" d="M1268.53 195.87L1270.88 227.19L1249.31 228.84L1244.74 199.74L1268.53 195.87Z" />
					<path id="&lt;Path&gt;" class="shp19" d="M1271.11 237.61L1273.86 268.79L1253.91 270.62L1250.88 239.95L1271.11 237.61Z" />
					<path id="&lt;Path&gt;" class="shp14" d="M1274.83 278.9L1277.01 308.61L1258.87 310.67L1254.29 281.58L1274.83 278.9Z" />
				</g>
				<path id="&lt;Path&gt;" class="shp18" d="M1208.11 218.4L1235.6 207.96C1237.64 207.19 1239.9 208.32 1240.56 210.45L1278.11 332.11C1278.73 334.12 1277.69 336.26 1275.77 336.97L1250.72 346.21C1248.71 346.95 1246.51 345.86 1245.82 343.79L1205.83 223.32C1205.16 221.31 1206.18 219.13 1208.11 218.4Z" />
				<path id="&lt;Path&gt;" class="shp2" d="M1236.44 216.65L1245.09 246.79L1224.33 253L1213.95 225.51L1236.44 216.65Z" />
				<path id="&lt;Path&gt;" class="shp6" d="M1247.43 256.93L1256.44 286.85L1237.3 292.89L1228.11 263.53L1247.43 256.93Z" />
				<path id="&lt;Path&gt;" class="shp14" d="M1259.45 296.53L1267.6 325.12L1250.28 331L1239.9 303.52L1259.45 296.53Z" />
			</g>
			<g id="&lt;Group&gt;">
				<path id="&lt;Path&gt;" class="shp9" d="M904.45 427.4L702.51 427.4C696.07 427.4 690.85 422.04 690.85 415.44L690.85 387.45C690.85 380.84 696.07 375.49 702.51 375.49L904.45 375.49C910.89 375.49 916.11 380.84 916.11 387.45L916.11 415.44C916.11 422.04 910.89 427.4 904.45 427.4Z" />
				<path id="&lt;Path&gt;" class="shp1" d="M828.79 398.67L718.7 398.67C716.58 398.67 714.85 396.9 714.85 394.72L714.85 394.72C714.85 392.54 716.58 390.77 718.7 390.77L828.79 390.77C830.92 390.77 832.65 392.54 832.65 394.72L832.65 394.72C832.65 396.9 830.92 398.67 828.79 398.67Z" />
				<path id="&lt;Path&gt;" class="shp3" d="M715.95 408.9L903.1 408.9" />
			</g>
			<g id="&lt;Group&gt;">
				<path id="&lt;Path&gt;" class="shp19" d="M623.16 286.66L617.94 291.55C616.47 292.93 614.18 292.82 612.84 291.31L609.65 287.73L620.2 277.86L623.39 281.44C624.73 282.94 624.63 285.28 623.16 286.66Z" />
				<path id="&lt;Path&gt;" class="shp3" d="M604.99 258.29L620.01 275.14C620.79 276.01 620.73 277.36 619.88 278.16L609.5 287.88C608.65 288.67 607.33 288.61 606.56 287.74L591.54 270.89C590.76 270.02 590.82 268.67 591.67 267.87L602.05 258.15C602.9 257.36 604.22 257.42 604.99 258.29Z" />
			</g>
			<g id="&lt;Group&gt;">
				<path id="&lt;Path&gt;" class="shp13" d="M575.85 365.12L556.98 365.12L556.98 347.46L575.85 347.46L575.85 365.12Z" />
				<path id="&lt;Path&gt;" class="shp3" d="M556.98 336.1L556.98 347.46L545.69 347.46" />
			</g>
			<g id="&lt;Group&gt;">
				<path id="&lt;Path&gt;" class="shp14" d="M1197.44 165.72L1178.57 165.72L1178.57 148.07L1197.44 148.07L1197.44 165.72Z" />
				<path id="&lt;Path&gt;" class="shp3" d="M1178.57 136.7L1178.57 148.07L1167.28 148.07" />
			</g>
			<text id="We work
your ideas
" style="transform: matrix(2.127,0,0,2.18,-480.636,-448.533)" >
				<tspan x="0" y="0" class="txt20" dx="0 -1 -1 -1 -1 -1 -1 -1" >We work
</tspan>
				<tspan x="0" y="36.611" class="txt20" dx="0 -1 -1 -1 -1 -1 -1 -1 -1 -1 -1" >your ideas
</tspan>
			</text>
			<text id="&gt; see creative work
" style="transform: matrix(2.127,0,0,2.18,-938.011,-1305.333)" >
				<tspan x="0" y="0" class="txt21" dx="0 0 0 0 0 0 0 0 0 0 0 0 0 0 0 0 0 0 0 0" >&gt; see creative work
</tspan>
			</text>
			<path id="&lt;Path&gt;" class="shp8" d="M-808.73 -1484.42L-920.51 -1484.42C-930.13 -1484.42 -937.92 -1492.4 -937.92 -1502.26L-937.92 -1504.29C-937.92 -1514.14 -930.13 -1522.13 -920.51 -1522.13L-808.73 -1522.13C-799.11 -1522.13 -791.32 -1514.14 -791.32 -1504.29L-791.32 -1502.26C-791.32 -1492.4 -799.11 -1484.42 -808.73 -1484.42Z" />
			<text id="Click Here
" style="transform: matrix(2.127,0,0,2.18,-914.04,-1495.044)" >
				<tspan x="0" y="0" class="txt22" dx="0 0 0 0 0 0 0 0 0 0 0" >Click Here
</tspan>
			</text>
			<text id="Description of services, who we are as a company a" style="transform: matrix(2.127,0,0,2.18,-938.011,-1600.767)" >
				<tspan x="0" y="6.98" class="txt23" dx="0 0 0 0 0 0 0 0 0 0 0 0 0 0 0 0 0 0 0 0 0 0 0 0 0 0 0 0 0 0 0 0 0 0 0 0 0 0 0 0 0 0 0 0 0 0 0 0 0" >Description of services, who we are as a company </tspan>
				<tspan x="0" y="18.98" class="txt23" dx="0 0 0 0 0 0 0 0 0 0 0 0 0 0 0 0 0 0 0 0 0 0 0 0 0 0 0 0 0 0 0 0 0 0 0 0 0 0 0" >and some filler text about the company
</tspan>
			</text>
			<g id="&lt;Group&gt;">
				<path id="&lt;Path&gt;" class="shp24" d="M-491.36 13.42L-460.83 13.42" />
			</g>
			<g id="&lt;Group&gt;">
				<path id="&lt;Path&gt;" class="shp3" d="M764.01 605.3C734.33 600.79 709.81 592.1 690.45 579.23C321.74 334.15 472.32 174.1 667.92 257.21" />
				<path id="&lt;Path&gt;" class="shp4" d="M493.6 262.79C493.6 265.95 491.11 268.51 488.03 268.51C484.94 268.51 482.45 265.95 482.45 262.79C482.45 259.64 484.94 257.08 488.03 257.08C491.11 257.08 493.6 259.64 493.6 262.79Z" />
				<g id="&lt;Group&gt;">
					<path id="&lt;Path&gt;" class="shp3" d="M452.53 231.42L458.64 225.41L472.67 233.64L479.72 255.95L458.18 246.71L452.53 231.42Z" />
					<path id="&lt;Path&gt;" class="shp3" d="M458.64 225.41L452.53 231.42L449.11 227.17L454.97 221.41L458.64 225.41Z" />
					<path id="&lt;Path&gt;" class="shp3" d="M479.72 255.95L465.72 240.18" />
				</g>
			</g>
			<g id="&lt;Group&gt;">
				<path id="&lt;Path&gt;" class="shp18" d="M516.02 652.39L533.44 648.43C535.19 648.03 536.9 649.21 537.2 651.02L550.75 731.84C551.04 733.54 549.96 735.17 548.32 735.53L532.55 738.96C530.84 739.33 529.16 738.19 528.83 736.43L513.63 656.14C513.3 654.43 514.36 652.77 516.02 652.39Z" />
				<path id="&lt;Path&gt;" class="shp13" d="M533.89 653.98L536.87 674.26L522.91 676.39L518.57 657.67L533.89 653.98Z" />
				<path id="&lt;Path&gt;" class="shp14" d="M537.51 681.04L540.75 701.21L527.85 703.38L524.44 683.55L537.51 681.04Z" />
				<path id="&lt;Path&gt;" class="shp2" d="M541.86 707.75L544.66 726.99L532.94 729.22L528.61 710.5L541.86 707.75Z" />
			</g>
			<g id="&lt;Group&gt;">
				<path id="&lt;Path&gt;" class="shp3" d="M948.97 857.37L1013.22 839.74L1015.67 846.88L950.7 864.17L948.97 857.37Z" />
				<g id="&lt;Group&gt;">
					<path id="&lt;Path&gt;" class="shp3" d="M940.06 848.16L941.91 854.14" />
					<path id="&lt;Path&gt;" class="shp3" d="M938.25 852.06L943.67 850.15" />
				</g>
				<g id="&lt;Group&gt;">
					<path id="&lt;Path&gt;" class="shp3" d="M936.94 871L940.43 882.27" />
					<path id="&lt;Path&gt;" class="shp3" d="M933.96 878.15L943.61 875" />
				</g>
				<g id="&lt;Group&gt;">
					<path id="&lt;Path&gt;" class="shp3" d="M922.26 852.38L926.82 867.32" />
					<path id="&lt;Path&gt;" class="shp3" d="M917.72 861.68L931.25 857.26" />
				</g>
			</g>
			<g id="&lt;Group&gt;">
				<path id="&lt;Path&gt;" class="shp25" d="M480.49 142.01L439.84 123.2L441.52 118.43L482.41 137.73L480.49 142.01Z" />
				<g id="&lt;Group&gt;">
					<path id="&lt;Path&gt;" class="shp25" d="M481.31 150.67L482.82 146.76" />
					<path id="&lt;Path&gt;" class="shp25" d="M483.86 149.43L480.26 148.06" />
				</g>
				<g id="&lt;Group&gt;">
					<path id="&lt;Path&gt;" class="shp25" d="M492.39 140.17L495.24 132.8" />
					<path id="&lt;Path&gt;" class="shp25" d="M496.89 137.76L490.58 135.19" />
				</g>
				<g id="&lt;Group&gt;">
					<path id="&lt;Path&gt;" class="shp25" d="M492.3 156.23L496.12 146.49" />
					<path id="&lt;Path&gt;" class="shp25" d="M498.5 153.37L489.64 149.78" />
				</g>
			</g>
			<g id="&lt;Group&gt;">
				<path id="&lt;Path&gt;" class="shp14" d="M632.44 493.94C603.78 472.79 575.62 439.93 587.97 406.17C601.15 397.17 618.16 398.29 639.02 409.54C659.88 420.8 670.31 426.42 670.31 426.42L632.44 493.94Z" />
				<g id="&lt;Group&gt;">
					<path id="&lt;Path&gt;" class="shp1" d="M619.45 634.82C606.55 628.58 551.49 599.2 541.7 549C533.23 505.62 565.59 447.15 581.81 421.32C580.76 455.61 614.36 484.63 630.57 496.59C646.99 508.71 659.07 514.64 675.73 521.05L619.45 634.82Z" />
					<path id="&lt;Compound Path&gt;" fill-rule="evenodd" class="shp14" d="M632.44 493.94C649.63 506.63 661.67 512.29 680.2 519.26L620.91 639.1C573.7 618.84 546.25 589.02 538.57 549.64C530.88 510.25 547.35 462.43 587.97 406.17C575.62 439.93 603.78 472.79 632.44 493.94ZM544.82 548.36C553.76 594.17 601.78 622.21 618.02 630.49L671.28 522.81C656.03 516.77 644.31 510.75 628.71 499.25C599.83 477.93 582.85 454.31 579.34 431.52C562.59 459.76 537.39 510.27 544.82 548.36Z" />
				</g>
				<path id="&lt;Path&gt;" class="shp3" d="M571.95 455.21C574.31 477.81 586.52 495.17 608.57 507.28" />
				<path id="&lt;Path&gt;" class="shp3" d="M626.29 519.38L659.37 537.55" />
				<path id="&lt;Path&gt;" class="shp3" d="M576.67 503.64C583.76 519.79 598.73 533.11 621.57 543.6" />
				<path id="&lt;Path&gt;" class="shp3" d="M549.5 507.28C550.29 524.23 556.2 535.53 567.22 541.18" />
				<path id="&lt;Path&gt;" class="shp3" d="M587.31 418.89C585.26 440.66 600.31 465.67 632.44 493.94" />
				<path id="&lt;Path&gt;" class="shp3" d="M605.03 424.94C615.26 424.14 627.87 429.38 642.83 440.68" />
				<path id="&lt;Path&gt;" class="shp3" d="M532.81 529.2C531.82 545.39 533.79 604.09 616.74 641.54" />
			</g>
			<g id="&lt;Group&gt;">
				<path id="&lt;Path&gt;" class="shp19" d="M1105.46 575.9C1086.22 608.36 1061.9 618.35 1032.49 605.85C1044.93 587.16 1043.19 574.81 1027.29 568.81L1062.47 496.54C1110.37 516.99 1124.7 543.44 1105.46 575.9Z" />
				<g id="&lt;Group&gt;">
					<path id="&lt;Path&gt;" class="shp1" d="M981.94 717.4C964.14 717.4 945.35 709.95 926.06 695.25L991.88 583.5L1031.02 608.76L1031.27 608.87C1031.64 609.03 1040.35 612.67 1052.65 612.67L1052.65 612.67C1062.54 612.67 1075.02 610.3 1087.18 601.48L1039.07 685.84C1038.95 686.01 1018.24 717.4 981.95 717.4C981.95 717.4 981.95 717.4 981.94 717.4Z" />
					<path id="&lt;Compound Path&gt;" fill-rule="evenodd" class="shp26" d="M1041.82 687.49C1027.6 709.61 1007.64 720.67 981.95 720.67C965.09 720.67 944.94 714.33 921.84 696.08L990.82 578.96L1032.49 605.85C1038.06 608.21 1044.78 609.4 1052.65 609.4C1067.98 609.4 1089.15 603.41 1105.46 575.9L1041.82 687.49ZM930.3 694.37C948.2 707.49 965.56 714.13 981.95 714.13C1015.55 714.13 1035.04 686.06 1036.42 684.01L1078.4 610.4C1069.17 614.63 1060.19 615.94 1052.65 615.94C1039.72 615.94 1030.44 612.05 1030.05 611.89L1029.55 611.68L1029.09 611.38L992.93 588.04L930.3 694.37Z" />
				</g>
				<path id="&lt;Path&gt;" class="shp3" d="M1027.29 568.81C1044.78 575.14 1046.52 587.49 1032.49 605.85" />
				<path id="&lt;Path&gt;" class="shp3" d="M1102.22 580.53C1088.53 604.72 1065.33 609.55 1045.54 609.78C1032.35 609.93 1013.84 598.82 990.01 576.44" />
				<path id="&lt;Path&gt;" class="shp3" d="M994.39 619.86C1010.75 634.74 1028.07 639.8 1046.36 635.02" />
				<path id="&lt;Path&gt;" class="shp3" d="M1020.16 653.23C1028.75 659.82 1039.03 660 1051.03 653.76" />
				<path id="&lt;Path&gt;" class="shp3" d="M960.95 666.99C980.75 687.17 1006.23 690.6 1037.4 677.29" />
				<path id="&lt;Path&gt;" class="shp3" d="M977.11 637.46C985.19 643.38 991.76 647.28 996.82 649.17" />
				<path id="&lt;Path&gt;" class="shp3" d="M1068.51 517.52C1086.59 523.58 1096.71 538.83 1098.88 563.28" />
				<path id="&lt;Path&gt;" class="shp3" d="M1082.14 562.84C1090.46 576.04 1087.59 589.24 1073.52 602.44" />
				<path id="&lt;Path&gt;" class="shp3" d="M924.36 701.6C969.75 741.45 1008.92 738.08 1041.86 691.48" />
			</g>
			<path id="&lt;Path&gt;" class="shp27" d="M432.86 473.98L448.73 473.98" />
			<path id="&lt;Path&gt;" class="shp27" d="M1317.12 278.3L1333 278.3" />
			<path id="&lt;Path&gt;" class="shp28" d="M891.43 166.67L907.31 166.67" />
			<path id="&lt;Path&gt; copy" class="shp28" d="M1308.31 785.77L1324.18 785.77" />
			<path id="&lt;Path&gt;" class="shp28" d="M1347.43 362.69L1363.05 365.56" />
			<path id="&lt;Path&gt;" class="shp29" d="M723.88 768.64L739.75 768.64" />
			<text id="Home
" style="transform: matrix(2.127,0,0,2.18,-84.959,-440.907)" >
				<tspan x="0" y="0" class="txt23" dx="0 0 0 0 0" >Home
</tspan>
			</text>
			<text id="About us
" style="transform: matrix(2.127,0,0,2.18,33.767,-442.092)" >
				<tspan x="0" y="0" class="txt21" dx="0 0 0 0 0 0 0 0 0" >About us
</tspan>
			</text>
			<text id="Gallery
" style="transform: matrix(2.127,0,0,2.18,178.635,-442.092)" >
				<tspan x="0" y="0" class="txt23" dx="0 0 0 0 0 0 0 0" >Gallery
</tspan>
			</text>
			<text id="Contact us
" style="transform: matrix(2.127,0,0,2.18,297.225,-442.092)" >
				<tspan x="0" y="0" class="txt23" dx="0 0 0 0 0 0 0 0 0 0 0" >Contact us
</tspan>
			</text>
			<text id="Search
" style="transform: matrix(2.127,0,0,2.18,465.259,-442.092)" >
				<tspan x="0" y="0" class="txt23" dx="0 0 0 0 0 0 0" >Search
</tspan>
			</text>
			<path id="&lt;Path&gt;" class="shp30" d="M762.36 -435.09L585.41 -435.09C579.03 -435.09 573.87 -440.39 573.87 -446.92L573.87 -448.08C573.87 -454.61 579.03 -459.9 585.41 -459.9L762.36 -459.9C768.74 -459.9 773.9 -454.61 773.9 -448.08L773.9 -446.92C773.9 -440.39 768.74 -435.09 762.36 -435.09Z" />
			<g id="&lt;Group&gt;">
				<path id="&lt;Path&gt;" class="shp31" d="M-682.73 -1389.78C-682.73 -1370.64 -697.87 -1355.11 -716.55 -1355.11C-735.24 -1355.11 -750.38 -1370.64 -750.38 -1389.78C-750.38 -1408.93 -735.24 -1424.45 -716.55 -1424.45C-697.87 -1424.45 -682.73 -1408.93 -682.73 -1389.78Z" />
				<g id="&lt;Clip Group&gt;" clip-path="url(#cp1)" style="opacity: 0.31">
					<path id="&lt;Path&gt;" class="shp32" d="M-745.36 -1358.97C-739.77 -1369.64 -733.29 -1376.42 -725.92 -1379.28C-714.87 -1383.58 -692.38 -1378.5 -687.43 -1366C-682.47 -1353.5 -697.72 -1348.42 -717.54 -1349.2C-730.75 -1349.72 -740.03 -1352.98 -745.36 -1358.97Z" />
					<path id="&lt;Path&gt;" class="shp33" d="M-715.85 -1383.15C-733.64 -1377.92 -728.48 -1398.12 -726.27 -1404.92C-725.57 -1407.07 -723.99 -1412.14 -721.15 -1412.82C-717.56 -1413.69 -705.64 -1413.4 -701.66 -1411.85C-698.85 -1410.75 -701.22 -1395.86 -701.95 -1386.42L-703.43 -1377.4C-709.81 -1372.87 -714.6 -1370.73 -717.8 -1370.98C-722.59 -1371.36 -721.48 -1376.64 -717.06 -1378.53L-715.85 -1383.15Z" />
					<path id="&lt;Path&gt;" class="shp34" d="M-720.08 -1408.06C-722.23 -1402.89 -726.07 -1400.24 -731.62 -1400.11C-739.95 -1399.92 -741.84 -1412.91 -735.6 -1414.27C-731.44 -1415.17 -726.89 -1414.78 -721.98 -1413.1C-723.99 -1417.11 -722.61 -1419.12 -717.81 -1419.12C-713.02 -1419.12 -710.06 -1417.11 -708.92 -1413.1C-706.78 -1415.69 -704.88 -1416.66 -703.24 -1416.01C-701.6 -1415.37 -701.35 -1414.07 -702.49 -1412.13C-698.96 -1412.52 -697.32 -1411.88 -697.57 -1410.2C-697.82 -1408.51 -698.77 -1406.64 -700.41 -1404.57C-700.41 -1391.26 -701.42 -1384.47 -703.43 -1384.21C-705.45 -1383.95 -707.09 -1387.18 -708.35 -1393.91L-709.3 -1403.6C-715.61 -1401.4 -719.2 -1402.89 -720.08 -1408.06Z" />
				</g>
			</g>
			<path id="&lt;Path&gt;" class="shp16" d="M-873.35 -1389.78C-873.35 -1370.64 -888.49 -1355.11 -907.17 -1355.11C-925.86 -1355.11 -941 -1370.64 -941 -1389.78C-941 -1408.93 -925.86 -1424.45 -907.17 -1424.45C-888.49 -1424.45 -873.35 -1408.93 -873.35 -1389.78Z" />
			<g id="&lt;Clip Group&gt;" clip-path="url(#cp2)">
				<path id="&lt;Path&gt;" class="shp9" d="M-935.98 -1358.97C-930.39 -1369.64 -923.91 -1376.42 -916.54 -1379.28C-905.49 -1383.58 -883 -1378.5 -878.05 -1366C-873.09 -1353.5 -888.34 -1348.42 -908.16 -1349.2C-921.37 -1349.72 -930.65 -1352.98 -935.98 -1358.97Z" />
				<path id="&lt;Path&gt;" class="shp6" d="M-906.47 -1383.15C-924.26 -1377.92 -919.1 -1398.12 -916.89 -1404.92C-916.19 -1407.07 -914.61 -1412.14 -911.77 -1412.82C-908.18 -1413.69 -896.26 -1413.4 -892.28 -1411.85C-889.47 -1410.75 -891.84 -1395.86 -892.57 -1386.42L-894.05 -1377.4C-900.43 -1372.87 -905.22 -1370.73 -908.42 -1370.98C-913.21 -1371.36 -912.1 -1376.64 -907.68 -1378.53L-906.47 -1383.15Z" />
				<path id="&lt;Path&gt;" class="shp8" d="M-910.7 -1408.06C-912.85 -1402.89 -916.69 -1400.24 -922.24 -1400.11C-930.57 -1399.92 -932.46 -1412.91 -926.22 -1414.27C-922.05 -1415.17 -917.51 -1414.78 -912.59 -1413.1C-914.61 -1417.11 -913.22 -1419.12 -908.43 -1419.12C-903.64 -1419.12 -900.67 -1417.11 -899.54 -1413.1C-897.4 -1415.69 -895.5 -1416.66 -893.86 -1416.01C-892.22 -1415.37 -891.97 -1414.07 -893.11 -1412.13C-889.57 -1412.52 -887.94 -1411.88 -888.19 -1410.2C-888.44 -1408.51 -889.39 -1406.64 -891.03 -1404.57C-891.03 -1391.26 -892.03 -1384.47 -894.05 -1384.21C-896.07 -1383.95 -897.71 -1387.18 -898.97 -1393.91L-899.92 -1403.6C-906.22 -1401.4 -909.82 -1402.89 -910.7 -1408.06Z" />
			</g>
			<path id="&lt;Path&gt;" class="shp31" d="M-780.74 -1389.78C-780.74 -1370.64 -795.89 -1355.11 -814.57 -1355.11C-833.25 -1355.11 -848.4 -1370.64 -848.4 -1389.78C-848.4 -1408.93 -833.25 -1424.45 -814.57 -1424.45C-795.89 -1424.45 -780.74 -1408.93 -780.74 -1389.78Z" />
			<g id="&lt;Clip Group&gt;" clip-path="url(#cp3)" style="opacity: 0.31">
				<path id="&lt;Path&gt;" class="shp32" d="M-843.38 -1358.97C-837.79 -1369.64 -831.31 -1376.42 -823.94 -1379.28C-812.89 -1383.58 -790.4 -1378.5 -785.44 -1366C-780.49 -1353.5 -795.73 -1348.42 -815.55 -1349.2C-828.77 -1349.72 -838.04 -1352.98 -843.38 -1358.97Z" />
				<path id="&lt;Path&gt;" class="shp33" d="M-813.87 -1383.15C-831.65 -1377.92 -826.5 -1398.12 -824.29 -1404.92C-823.59 -1407.07 -822.01 -1412.14 -819.17 -1412.82C-815.58 -1413.69 -803.65 -1413.4 -799.68 -1411.85C-796.87 -1410.75 -799.23 -1395.86 -799.97 -1386.42L-801.44 -1377.4C-807.83 -1372.87 -812.62 -1370.73 -815.81 -1370.98C-820.6 -1371.36 -819.5 -1376.64 -815.07 -1378.53L-813.87 -1383.15Z" />
				<path id="&lt;Path&gt;" class="shp34" d="M-818.1 -1408.06C-820.24 -1402.89 -824.09 -1400.24 -829.64 -1400.11C-837.96 -1399.92 -839.86 -1412.91 -833.61 -1414.27C-829.45 -1415.17 -824.91 -1414.78 -819.99 -1413.1C-822.01 -1417.11 -820.62 -1419.12 -815.83 -1419.12C-811.03 -1419.12 -808.07 -1417.11 -806.94 -1413.1C-804.79 -1415.69 -802.9 -1416.66 -801.26 -1416.01C-799.62 -1415.37 -799.37 -1414.07 -800.5 -1412.13C-796.97 -1412.52 -795.33 -1411.88 -795.58 -1410.2C-795.84 -1408.51 -796.78 -1406.64 -798.42 -1404.57C-798.42 -1391.26 -799.43 -1384.47 -801.45 -1384.21C-803.47 -1383.95 -805.11 -1387.18 -806.37 -1393.91L-807.31 -1403.6C-813.62 -1401.4 -817.21 -1402.89 -818.1 -1408.06Z" />
			</g>
			<path id="&lt;Path&gt;" class="shp19" d="M1386.89 565.83C1386.89 568.81 1384.53 571.22 1381.63 571.22C1378.72 571.22 1376.37 568.81 1376.37 565.83C1376.37 562.85 1378.72 560.44 1381.63 560.44C1384.53 560.44 1386.89 562.85 1386.89 565.83Z" />
			<path id="&lt;Path&gt;" class="shp19" d="M399.19 307.24C399.19 310.22 396.83 312.63 393.93 312.63C391.02 312.63 388.67 310.22 388.67 307.24C388.67 304.26 391.02 301.85 393.93 301.85C396.83 301.85 399.19 304.26 399.19 307.24Z" />
			<path id="&lt;Path&gt;" class="shp3" d="" />
			<path id="&lt;Path&gt;" class="shp4" d="M1441.12 918.4C1438.18 917.44 1436.55 914.23 1437.48 911.22C1438.41 908.21 1441.55 906.54 1444.48 907.5C1447.42 908.45 1449.05 911.66 1448.12 914.67C1447.19 917.68 1444.05 919.35 1441.12 918.4Z" />
			<path id="&lt;Path&gt;" class="shp4" d="M1758.93 725.39C1755.99 724.44 1754.37 721.23 1755.3 718.22C1756.23 715.2 1759.36 713.54 1762.3 714.49C1765.23 715.44 1766.86 718.65 1765.93 721.67C1765 724.68 1761.87 726.34 1758.93 725.39Z" />
			<path id="&lt;Path&gt;" class="shp3" d="M1441.38 913.45C1408.27 933.86 1380.59 939.53 1358.36 930.49C1325.01 916.92 1406.31 745.03 1609.87 663.06C1740.4 610.49 1791.07 628.76 1761.87 717.86" />
			<g id="&lt;Group&gt;">
				<text id="By Design
" style="transform: matrix(2.127,0,0,2.18,-285.637,-226.806)" >
					<tspan x="0" y="0" class="txt35" dx="0 0 0 0 0 0 0 0 0 0" >By Design
</tspan>
				</text>
				<text id="LandingPage
" style="transform: matrix(2.127,0,0,2.18,-630.399,-619.824)" >
					<tspan x="0" y="0" class="txt36" dx="0 -1 -1 -1 -1 -1 -1" >Landing</tspan><tspan  y="0" class="txt37" dx="0 -1 -1 -1 -1" >Page
</tspan>
				</text>
				<text id="LandingPage
 copy" style="transform: matrix(2.127,0,0,2.18,-806.932,-955.53)" >
					<tspan x="0" y="0" class="txt36" dx="0 -1 -1 -1 -1 -1 -1" >Landing</tspan><tspan  y="0" class="txt37" dx="0 -1 -1 -1 -1" >Page
</tspan>
				</text>
				<path id="&lt;Path&gt;" class="shp9" d="M-300.63 -234.8C-298.87 -236.6 -296.02 -236.6 -294.26 -234.8C-292.5 -232.99 -292.5 -230.07 -294.26 -228.27C-296.02 -226.46 -298.87 -226.46 -300.63 -228.27C-302.39 -230.07 -302.39 -232.99 -300.63 -234.8Z" />
				<g id="&lt;Group&gt;">
					<path id="&lt;Path&gt;" class="shp6" d="M-516.87 -252.28L-508.41 -252.5L-504.13 -238.89C-503.7 -237.5 -503.78 -235.99 -504.37 -234.66L-512.92 -215.38L-521.71 -234.8C-522.37 -236.26 -522.42 -237.94 -521.84 -239.43L-516.87 -252.28Z" />
					<path id="&lt;Path&gt;" class="shp4" d="M-508.41 -252.5L-516.87 -252.28L-516.8 -253.68C-516.69 -255.97 -514.82 -257.76 -512.58 -257.72L-512.58 -257.72C-510.43 -257.68 -508.66 -255.97 -508.5 -253.78L-508.41 -252.5Z" />
					<path id="&lt;Path&gt;" class="shp38" d="M-512.92 -215.38L-512.89 -236.71" />
				</g>
			</g>
		</g>
	</g>
</svg>